<mxfile host="app.diagrams.net" modified="2023-09-05T15:59:19.032Z" agent="Mozilla/5.0 (Windows NT 10.0; Win64; x64) AppleWebKit/537.36 (KHTML, like Gecko) Chrome/116.0.0.0 Safari/537.36" etag="SuIiWTfFH1p6kpotGw18" version="21.7.2" type="device">
  <diagram name="Page-1" id="7q1JeLbW42E-xH8JFpvl">
    <mxGraphModel dx="2547" dy="712" grid="1" gridSize="10" guides="1" tooltips="1" connect="1" arrows="1" fold="1" page="1" pageScale="1" pageWidth="827" pageHeight="1169" math="0" shadow="0">
      <root>
        <mxCell id="0" />
        <mxCell id="1" parent="0" />
        <mxCell id="JQEhRS35XR0tFkJoIe-f-3" style="edgeStyle=orthogonalEdgeStyle;rounded=0;orthogonalLoop=1;jettySize=auto;html=1;exitX=0.5;exitY=0;exitDx=0;exitDy=0;entryX=0.5;entryY=1;entryDx=0;entryDy=0;" edge="1" parent="1" source="JQEhRS35XR0tFkJoIe-f-1" target="JQEhRS35XR0tFkJoIe-f-2">
          <mxGeometry relative="1" as="geometry" />
        </mxCell>
        <mxCell id="JQEhRS35XR0tFkJoIe-f-5" style="edgeStyle=orthogonalEdgeStyle;rounded=0;orthogonalLoop=1;jettySize=auto;html=1;exitX=0.5;exitY=0;exitDx=0;exitDy=0;entryX=0.5;entryY=1;entryDx=0;entryDy=0;" edge="1" parent="1" source="JQEhRS35XR0tFkJoIe-f-1" target="JQEhRS35XR0tFkJoIe-f-4">
          <mxGeometry relative="1" as="geometry" />
        </mxCell>
        <mxCell id="JQEhRS35XR0tFkJoIe-f-7" style="edgeStyle=orthogonalEdgeStyle;rounded=0;orthogonalLoop=1;jettySize=auto;html=1;exitX=0.5;exitY=0;exitDx=0;exitDy=0;entryX=0.5;entryY=1;entryDx=0;entryDy=0;" edge="1" parent="1" source="JQEhRS35XR0tFkJoIe-f-1" target="JQEhRS35XR0tFkJoIe-f-6">
          <mxGeometry relative="1" as="geometry" />
        </mxCell>
        <mxCell id="JQEhRS35XR0tFkJoIe-f-9" style="edgeStyle=orthogonalEdgeStyle;rounded=0;orthogonalLoop=1;jettySize=auto;html=1;exitX=0.5;exitY=0;exitDx=0;exitDy=0;entryX=0.5;entryY=1;entryDx=0;entryDy=0;" edge="1" parent="1" source="JQEhRS35XR0tFkJoIe-f-1" target="JQEhRS35XR0tFkJoIe-f-8">
          <mxGeometry relative="1" as="geometry" />
        </mxCell>
        <mxCell id="JQEhRS35XR0tFkJoIe-f-11" style="edgeStyle=orthogonalEdgeStyle;rounded=0;orthogonalLoop=1;jettySize=auto;html=1;exitX=0.5;exitY=0;exitDx=0;exitDy=0;entryX=0.5;entryY=1;entryDx=0;entryDy=0;" edge="1" parent="1" source="JQEhRS35XR0tFkJoIe-f-1" target="JQEhRS35XR0tFkJoIe-f-10">
          <mxGeometry relative="1" as="geometry" />
        </mxCell>
        <mxCell id="JQEhRS35XR0tFkJoIe-f-15" style="edgeStyle=orthogonalEdgeStyle;rounded=0;orthogonalLoop=1;jettySize=auto;html=1;exitX=0.5;exitY=0;exitDx=0;exitDy=0;" edge="1" parent="1" source="JQEhRS35XR0tFkJoIe-f-1" target="JQEhRS35XR0tFkJoIe-f-14">
          <mxGeometry relative="1" as="geometry" />
        </mxCell>
        <mxCell id="JQEhRS35XR0tFkJoIe-f-17" style="edgeStyle=orthogonalEdgeStyle;rounded=0;orthogonalLoop=1;jettySize=auto;html=1;exitX=0.5;exitY=0;exitDx=0;exitDy=0;" edge="1" parent="1" source="JQEhRS35XR0tFkJoIe-f-1" target="JQEhRS35XR0tFkJoIe-f-16">
          <mxGeometry relative="1" as="geometry" />
        </mxCell>
        <mxCell id="JQEhRS35XR0tFkJoIe-f-18" style="edgeStyle=orthogonalEdgeStyle;rounded=0;orthogonalLoop=1;jettySize=auto;html=1;exitX=0.5;exitY=0;exitDx=0;exitDy=0;entryX=0.5;entryY=1;entryDx=0;entryDy=0;" edge="1" parent="1" source="JQEhRS35XR0tFkJoIe-f-1">
          <mxGeometry relative="1" as="geometry">
            <mxPoint x="-750" y="340" as="targetPoint" />
          </mxGeometry>
        </mxCell>
        <mxCell id="JQEhRS35XR0tFkJoIe-f-20" style="edgeStyle=orthogonalEdgeStyle;rounded=0;orthogonalLoop=1;jettySize=auto;html=1;exitX=0.5;exitY=0;exitDx=0;exitDy=0;entryX=0.5;entryY=1;entryDx=0;entryDy=0;" edge="1" parent="1" source="JQEhRS35XR0tFkJoIe-f-1" target="JQEhRS35XR0tFkJoIe-f-19">
          <mxGeometry relative="1" as="geometry" />
        </mxCell>
        <mxCell id="JQEhRS35XR0tFkJoIe-f-42" style="edgeStyle=orthogonalEdgeStyle;rounded=0;orthogonalLoop=1;jettySize=auto;html=1;entryX=0.5;entryY=0;entryDx=0;entryDy=0;" edge="1" parent="1" source="JQEhRS35XR0tFkJoIe-f-1" target="JQEhRS35XR0tFkJoIe-f-39">
          <mxGeometry relative="1" as="geometry" />
        </mxCell>
        <mxCell id="JQEhRS35XR0tFkJoIe-f-1" value="User" style="rounded=0;whiteSpace=wrap;html=1;" vertex="1" parent="1">
          <mxGeometry x="-460" y="440" width="120" height="60" as="geometry" />
        </mxCell>
        <mxCell id="JQEhRS35XR0tFkJoIe-f-2" value="&lt;u&gt;id&lt;/u&gt;" style="ellipse;whiteSpace=wrap;html=1;" vertex="1" parent="1">
          <mxGeometry x="-690" y="200" width="120" height="80" as="geometry" />
        </mxCell>
        <mxCell id="JQEhRS35XR0tFkJoIe-f-4" value="firstName" style="ellipse;whiteSpace=wrap;html=1;" vertex="1" parent="1">
          <mxGeometry x="-570" y="260" width="120" height="80" as="geometry" />
        </mxCell>
        <mxCell id="JQEhRS35XR0tFkJoIe-f-6" value="lastName" style="ellipse;whiteSpace=wrap;html=1;" vertex="1" parent="1">
          <mxGeometry x="-460" y="200" width="120" height="80" as="geometry" />
        </mxCell>
        <mxCell id="JQEhRS35XR0tFkJoIe-f-8" value="password" style="ellipse;whiteSpace=wrap;html=1;" vertex="1" parent="1">
          <mxGeometry x="-330" y="260" width="120" height="80" as="geometry" />
        </mxCell>
        <mxCell id="JQEhRS35XR0tFkJoIe-f-10" value="email" style="ellipse;whiteSpace=wrap;html=1;" vertex="1" parent="1">
          <mxGeometry x="-210" y="200" width="120" height="80" as="geometry" />
        </mxCell>
        <mxCell id="JQEhRS35XR0tFkJoIe-f-12" value="&lt;u&gt;username&lt;/u&gt;" style="ellipse;whiteSpace=wrap;html=1;" vertex="1" parent="1">
          <mxGeometry x="-810" y="260" width="120" height="80" as="geometry" />
        </mxCell>
        <mxCell id="JQEhRS35XR0tFkJoIe-f-14" value="phone" style="ellipse;whiteSpace=wrap;html=1;" vertex="1" parent="1">
          <mxGeometry x="-80" y="260" width="120" height="80" as="geometry" />
        </mxCell>
        <mxCell id="JQEhRS35XR0tFkJoIe-f-16" value="enable" style="ellipse;whiteSpace=wrap;html=1;" vertex="1" parent="1">
          <mxGeometry x="50" y="200" width="120" height="80" as="geometry" />
        </mxCell>
        <mxCell id="JQEhRS35XR0tFkJoIe-f-19" value="about" style="ellipse;whiteSpace=wrap;html=1;" vertex="1" parent="1">
          <mxGeometry x="160" y="260" width="120" height="80" as="geometry" />
        </mxCell>
        <mxCell id="JQEhRS35XR0tFkJoIe-f-23" style="edgeStyle=orthogonalEdgeStyle;rounded=0;orthogonalLoop=1;jettySize=auto;html=1;exitX=0.5;exitY=0;exitDx=0;exitDy=0;entryX=0.5;entryY=1;entryDx=0;entryDy=0;" edge="1" parent="1" source="JQEhRS35XR0tFkJoIe-f-21" target="JQEhRS35XR0tFkJoIe-f-22">
          <mxGeometry relative="1" as="geometry" />
        </mxCell>
        <mxCell id="JQEhRS35XR0tFkJoIe-f-25" style="edgeStyle=orthogonalEdgeStyle;rounded=0;orthogonalLoop=1;jettySize=auto;html=1;exitX=0.5;exitY=0;exitDx=0;exitDy=0;entryX=0.5;entryY=1;entryDx=0;entryDy=0;" edge="1" parent="1" source="JQEhRS35XR0tFkJoIe-f-21" target="JQEhRS35XR0tFkJoIe-f-24">
          <mxGeometry relative="1" as="geometry" />
        </mxCell>
        <mxCell id="JQEhRS35XR0tFkJoIe-f-34" style="edgeStyle=orthogonalEdgeStyle;rounded=0;orthogonalLoop=1;jettySize=auto;html=1;exitX=0;exitY=0.5;exitDx=0;exitDy=0;entryX=0.5;entryY=0;entryDx=0;entryDy=0;" edge="1" parent="1" source="JQEhRS35XR0tFkJoIe-f-21" target="JQEhRS35XR0tFkJoIe-f-33">
          <mxGeometry relative="1" as="geometry" />
        </mxCell>
        <mxCell id="JQEhRS35XR0tFkJoIe-f-21" value="Role" style="rounded=0;whiteSpace=wrap;html=1;" vertex="1" parent="1">
          <mxGeometry x="617" y="600" width="120" height="60" as="geometry" />
        </mxCell>
        <mxCell id="JQEhRS35XR0tFkJoIe-f-22" value="&lt;u&gt;roleId&lt;/u&gt;" style="ellipse;whiteSpace=wrap;html=1;" vertex="1" parent="1">
          <mxGeometry x="537" y="450" width="120" height="80" as="geometry" />
        </mxCell>
        <mxCell id="JQEhRS35XR0tFkJoIe-f-24" value="role" style="ellipse;whiteSpace=wrap;html=1;" vertex="1" parent="1">
          <mxGeometry x="667" y="450" width="120" height="80" as="geometry" />
        </mxCell>
        <mxCell id="JQEhRS35XR0tFkJoIe-f-28" style="edgeStyle=orthogonalEdgeStyle;rounded=0;orthogonalLoop=1;jettySize=auto;html=1;exitX=0.5;exitY=0;exitDx=0;exitDy=0;entryX=0.5;entryY=1;entryDx=0;entryDy=0;" edge="1" parent="1" source="JQEhRS35XR0tFkJoIe-f-26" target="JQEhRS35XR0tFkJoIe-f-27">
          <mxGeometry relative="1" as="geometry" />
        </mxCell>
        <mxCell id="JQEhRS35XR0tFkJoIe-f-30" style="edgeStyle=orthogonalEdgeStyle;rounded=0;orthogonalLoop=1;jettySize=auto;html=1;exitX=0.5;exitY=0;exitDx=0;exitDy=0;entryX=0.5;entryY=1;entryDx=0;entryDy=0;" edge="1" parent="1" source="JQEhRS35XR0tFkJoIe-f-26" target="JQEhRS35XR0tFkJoIe-f-29">
          <mxGeometry relative="1" as="geometry" />
        </mxCell>
        <mxCell id="JQEhRS35XR0tFkJoIe-f-32" style="edgeStyle=orthogonalEdgeStyle;rounded=0;orthogonalLoop=1;jettySize=auto;html=1;exitX=1;exitY=0.5;exitDx=0;exitDy=0;entryX=0.5;entryY=1;entryDx=0;entryDy=0;" edge="1" parent="1" source="JQEhRS35XR0tFkJoIe-f-26" target="JQEhRS35XR0tFkJoIe-f-31">
          <mxGeometry relative="1" as="geometry" />
        </mxCell>
        <mxCell id="JQEhRS35XR0tFkJoIe-f-26" value="User_Role" style="rounded=0;whiteSpace=wrap;html=1;" vertex="1" parent="1">
          <mxGeometry x="-73" y="770" width="120" height="60" as="geometry" />
        </mxCell>
        <mxCell id="JQEhRS35XR0tFkJoIe-f-27" value="&lt;u&gt;userRoleId&lt;/u&gt;" style="ellipse;whiteSpace=wrap;html=1;" vertex="1" parent="1">
          <mxGeometry x="-153" y="630" width="120" height="80" as="geometry" />
        </mxCell>
        <mxCell id="JQEhRS35XR0tFkJoIe-f-29" value="userID" style="ellipse;whiteSpace=wrap;html=1;" vertex="1" parent="1">
          <mxGeometry x="-13" y="630" width="120" height="80" as="geometry" />
        </mxCell>
        <mxCell id="JQEhRS35XR0tFkJoIe-f-31" value="roleId" style="ellipse;whiteSpace=wrap;html=1;" vertex="1" parent="1">
          <mxGeometry x="107" y="690" width="120" height="80" as="geometry" />
        </mxCell>
        <mxCell id="JQEhRS35XR0tFkJoIe-f-35" style="edgeStyle=orthogonalEdgeStyle;rounded=0;orthogonalLoop=1;jettySize=auto;html=1;exitX=0;exitY=0.5;exitDx=0;exitDy=0;entryX=0.5;entryY=1;entryDx=0;entryDy=0;" edge="1" parent="1" source="JQEhRS35XR0tFkJoIe-f-33" target="JQEhRS35XR0tFkJoIe-f-26">
          <mxGeometry relative="1" as="geometry" />
        </mxCell>
        <mxCell id="JQEhRS35XR0tFkJoIe-f-33" value="" style="rhombus;whiteSpace=wrap;html=1;" vertex="1" parent="1">
          <mxGeometry x="391" y="820" width="80" height="80" as="geometry" />
        </mxCell>
        <mxCell id="JQEhRS35XR0tFkJoIe-f-36" value="1" style="text;html=1;strokeColor=none;fillColor=none;align=center;verticalAlign=middle;whiteSpace=wrap;rounded=0;" vertex="1" parent="1">
          <mxGeometry x="517" y="600" width="60" height="30" as="geometry" />
        </mxCell>
        <mxCell id="JQEhRS35XR0tFkJoIe-f-38" value="n" style="text;html=1;align=center;verticalAlign=middle;resizable=0;points=[];autosize=1;strokeColor=none;fillColor=none;" vertex="1" parent="1">
          <mxGeometry x="50" y="830" width="30" height="30" as="geometry" />
        </mxCell>
        <mxCell id="JQEhRS35XR0tFkJoIe-f-40" style="edgeStyle=orthogonalEdgeStyle;rounded=0;orthogonalLoop=1;jettySize=auto;html=1;exitX=1;exitY=0.5;exitDx=0;exitDy=0;entryX=0;entryY=0.5;entryDx=0;entryDy=0;" edge="1" parent="1" source="JQEhRS35XR0tFkJoIe-f-39" target="JQEhRS35XR0tFkJoIe-f-26">
          <mxGeometry relative="1" as="geometry" />
        </mxCell>
        <mxCell id="JQEhRS35XR0tFkJoIe-f-39" value="" style="rhombus;whiteSpace=wrap;html=1;" vertex="1" parent="1">
          <mxGeometry x="-440" y="760" width="80" height="80" as="geometry" />
        </mxCell>
        <mxCell id="JQEhRS35XR0tFkJoIe-f-41" value="n" style="text;html=1;align=center;verticalAlign=middle;resizable=0;points=[];autosize=1;strokeColor=none;fillColor=none;" vertex="1" parent="1">
          <mxGeometry x="-143" y="770" width="30" height="30" as="geometry" />
        </mxCell>
        <mxCell id="JQEhRS35XR0tFkJoIe-f-43" value="1" style="text;html=1;align=center;verticalAlign=middle;resizable=0;points=[];autosize=1;strokeColor=none;fillColor=none;" vertex="1" parent="1">
          <mxGeometry x="-398" y="538" width="30" height="30" as="geometry" />
        </mxCell>
      </root>
    </mxGraphModel>
  </diagram>
</mxfile>
